<svg width="80" height="51" viewBox="0 0 80 51" fill="none" xmlns="http://www.w3.org/2000/svg">
<g style="mix-blend-mode:hard-light" filter="url(#filter0_f_582_13)">
<mask id="path-1-outside-1_582_13" maskUnits="userSpaceOnUse" x="15" y="9" width="39" height="38" fill="black">
<rect fill="white" x="15" y="9" width="39" height="38"/>
<path d="M19.0667 45C18.7147 45 18.4107 44.888 18.1547 44.664C17.9307 44.44 17.8187 44.152 17.8187 43.8V12.648C17.8187 12.296 17.9307 12.008 18.1547 11.784C18.4107 11.528 18.7147 11.4 19.0667 11.4H24.4907C25.2907 11.4 25.8667 11.752 26.2187 12.456L34.4747 27.24L42.7787 12.456C43.1307 11.752 43.7067 11.4 44.5067 11.4H49.9307C50.2827 11.4 50.5707 11.528 50.7947 11.784C51.0507 12.008 51.1787 12.296 51.1787 12.648V43.8C51.1787 44.152 51.0507 44.44 50.7947 44.664C50.5707 44.888 50.2827 45 49.9307 45H43.8347C43.5147 45 43.2267 44.888 42.9707 44.664C42.7467 44.408 42.6347 44.12 42.6347 43.8V26.328L37.4507 35.832C37.0347 36.568 36.4747 36.936 35.7707 36.936H33.1787C32.5387 36.936 31.9787 36.568 31.4987 35.832L26.3627 26.328V43.8C26.3627 44.152 26.2347 44.44 25.9787 44.664C25.7547 44.888 25.4667 45 25.1147 45H19.0667Z"/>
</mask>
<path d="M18.1547 44.664L16.795 46.0237L16.8403 46.069L16.8884 46.1111L18.1547 44.664ZM18.1547 11.784L19.5144 13.1437L19.5144 13.1437L18.1547 11.784ZM26.2187 12.456L24.4988 13.316L24.5184 13.3552L24.5398 13.3935L26.2187 12.456ZM34.4747 27.24L32.7958 28.1776L34.4698 31.1752L36.1512 28.1817L34.4747 27.24ZM42.7787 12.456L44.4552 13.3977L44.4779 13.3573L44.4986 13.316L42.7787 12.456ZM50.7947 11.784L49.3475 13.0502L49.432 13.1467L49.5284 13.2311L50.7947 11.784ZM50.7947 44.664L49.5284 43.2169L49.4803 43.259L49.435 43.3043L50.7947 44.664ZM42.9707 44.664L41.5235 45.9302L41.608 46.0267L41.7044 46.1111L42.9707 44.664ZM42.6347 26.328H44.5576L40.9466 25.4072L42.6347 26.328ZM37.4507 35.832L39.1247 36.7782L39.1319 36.7655L39.1388 36.7528L37.4507 35.832ZM31.4987 35.832L29.807 36.7462L29.8447 36.816L29.888 36.8824L31.4987 35.832ZM26.3627 26.328L28.0544 25.4138L24.4398 26.328H26.3627ZM25.9787 44.664L24.7124 43.2169L24.6643 43.259L24.619 43.3043L25.9787 44.664ZM19.0667 43.0771C19.0979 43.0771 19.1609 43.0827 19.2395 43.1116C19.319 43.141 19.3809 43.1818 19.4209 43.2169L16.8884 46.1111C17.5081 46.6533 18.2667 46.9229 19.0667 46.9229V43.0771ZM19.5144 43.3043C19.5861 43.376 19.6517 43.4722 19.6949 43.583C19.7364 43.6899 19.7416 43.7704 19.7416 43.8H15.8958C15.8958 44.5999 16.1687 45.3974 16.795 46.0237L19.5144 43.3043ZM19.7416 43.8V12.648H15.8958V43.8H19.7416ZM19.7416 12.648C19.7416 12.6776 19.7364 12.7581 19.6949 12.865C19.6517 12.9758 19.5861 13.072 19.5144 13.1437L16.795 10.4243C16.1687 11.0506 15.8958 11.8481 15.8958 12.648H19.7416ZM19.5144 13.1437C19.4837 13.1744 19.4196 13.2267 19.3209 13.2682C19.2211 13.3102 19.1295 13.3229 19.0667 13.3229V9.47708C18.1887 9.47708 17.4001 9.81918 16.795 10.4243L19.5144 13.1437ZM19.0667 13.3229H24.4907V9.47708H19.0667V13.3229ZM24.4907 13.3229C24.5499 13.3229 24.574 13.3294 24.5721 13.3289C24.5712 13.3287 24.565 13.327 24.555 13.3228C24.5449 13.3186 24.5328 13.3126 24.52 13.3048C24.5071 13.2969 24.4957 13.2885 24.4861 13.2804C24.4766 13.2724 24.4707 13.2662 24.4683 13.2633C24.4631 13.2575 24.476 13.2703 24.4988 13.316L27.9386 11.596C27.6286 10.9761 27.169 10.4165 26.5254 10.0232C25.8836 9.63101 25.1784 9.47708 24.4907 9.47708V13.3229ZM24.5398 13.3935L32.7958 28.1776L36.1536 26.3024L27.8976 11.5184L24.5398 13.3935ZM36.1512 28.1817L44.4552 13.3977L41.1021 11.5143L32.7981 26.2983L36.1512 28.1817ZM44.4986 13.316C44.5214 13.2703 44.5343 13.2575 44.5291 13.2633C44.5266 13.2662 44.5208 13.2724 44.5113 13.2804C44.5017 13.2885 44.4903 13.2969 44.4774 13.3048C44.4645 13.3126 44.4525 13.3186 44.4424 13.3228C44.4323 13.327 44.4262 13.3287 44.4253 13.3289C44.4233 13.3294 44.4475 13.3229 44.5067 13.3229V9.47708C43.819 9.47708 43.1138 9.63101 42.472 10.0232C41.8284 10.4165 41.3687 10.9761 41.0588 11.596L44.4986 13.316ZM44.5067 13.3229H49.9307V9.47708H44.5067V13.3229ZM49.9307 13.3229C49.8692 13.3229 49.7589 13.3106 49.6297 13.2532C49.4989 13.195 49.4045 13.1154 49.3475 13.0502L52.2418 10.5177C51.6384 9.82815 50.8152 9.47708 49.9307 9.47708V13.3229ZM49.5284 13.2311C49.4633 13.1742 49.3837 13.0798 49.3255 12.949C49.2681 12.8198 49.2558 12.7095 49.2558 12.648H53.1016C53.1016 11.7635 52.7505 10.9403 52.0609 10.3369L49.5284 13.2311ZM49.2558 12.648V43.8H53.1016V12.648H49.2558ZM49.2558 43.8C49.2558 43.7385 49.2681 43.6282 49.3255 43.499C49.3837 43.3682 49.4633 43.2738 49.5284 43.2169L52.0609 46.1111C52.7505 45.5077 53.1016 44.6845 53.1016 43.8H49.2558ZM49.435 43.3043C49.5067 43.2326 49.6029 43.1669 49.7137 43.1238C49.8206 43.0823 49.9011 43.0771 49.9307 43.0771V46.9229C50.7306 46.9229 51.5281 46.65 52.1544 46.0237L49.435 43.3043ZM49.9307 43.0771H43.8347V46.9229H49.9307V43.0771ZM43.8347 43.0771C43.9045 43.0771 43.9895 43.0903 44.0756 43.1238C44.16 43.1566 44.2136 43.1964 44.2369 43.2169L41.7044 46.1111C42.287 46.6208 43.018 46.9229 43.8347 46.9229V43.0771ZM44.4178 43.3978C44.4383 43.4211 44.4781 43.4747 44.5109 43.559C44.5443 43.6451 44.5576 43.7302 44.5576 43.8H40.7118C40.7118 44.6167 41.0138 45.3477 41.5235 45.9302L44.4178 43.3978ZM44.5576 43.8V26.328H40.7118V43.8H44.5576ZM40.9466 25.4072L35.7626 34.9112L39.1388 36.7528L44.3228 27.2488L40.9466 25.4072ZM35.7767 34.8858C35.6807 35.0555 35.6289 35.0752 35.6627 35.053C35.6797 35.0418 35.7051 35.0292 35.7342 35.0207C35.7625 35.0125 35.7774 35.0131 35.7707 35.0131V38.8589C37.3186 38.8589 38.4488 37.974 39.1247 36.7782L35.7767 34.8858ZM35.7707 35.0131H33.1787V38.8589H35.7707V35.0131ZM33.1787 35.0131C33.2059 35.0131 33.2412 35.0175 33.2775 35.0286C33.3131 35.0395 33.3327 35.0517 33.3347 35.053C33.3353 35.0534 33.3137 35.0393 33.2734 34.9965C33.2326 34.9532 33.1766 34.8848 33.1093 34.7816L29.888 36.8824C30.5773 37.9393 31.6609 38.8589 33.1787 38.8589V35.0131ZM33.1904 34.9178L28.0544 25.4138L24.671 27.2422L29.807 36.7462L33.1904 34.9178ZM24.4398 26.328V43.8H28.2856V26.328H24.4398ZM24.4398 43.8C24.4398 43.7385 24.4521 43.6282 24.5095 43.499C24.5677 43.3682 24.6473 43.2738 24.7124 43.2169L27.2449 46.1111C27.9345 45.5077 28.2856 44.6845 28.2856 43.8H24.4398ZM24.619 43.3043C24.6907 43.2326 24.7869 43.1669 24.8977 43.1238C25.0046 43.0823 25.0851 43.0771 25.1147 43.0771V46.9229C25.9146 46.9229 26.7121 46.65 27.3384 46.0237L24.619 43.3043ZM25.1147 43.0771H19.0667V46.9229H25.1147V43.0771Z" fill="#0094FF" mask="url(#path-1-outside-1_582_13)"/>
</g>
<g style="mix-blend-mode:hard-light" filter="url(#filter1_f_582_13)">
<mask id="path-3-outside-2_582_13" maskUnits="userSpaceOnUse" x="15" y="8" width="39" height="40" fill="black">
<rect fill="white" x="15" y="8" width="39" height="40"/>
<path d="M19.0667 45C18.7147 45 18.4107 44.888 18.1547 44.664C17.9307 44.44 17.8187 44.152 17.8187 43.8V12.648C17.8187 12.296 17.9307 12.008 18.1547 11.784C18.4107 11.528 18.7147 11.4 19.0667 11.4H24.4907C25.2907 11.4 25.8667 11.752 26.2187 12.456L34.4747 27.24L42.7787 12.456C43.1307 11.752 43.7067 11.4 44.5067 11.4H49.9307C50.2827 11.4 50.5707 11.528 50.7947 11.784C51.0507 12.008 51.1787 12.296 51.1787 12.648V43.8C51.1787 44.152 51.0507 44.44 50.7947 44.664C50.5707 44.888 50.2827 45 49.9307 45H43.8347C43.5147 45 43.2267 44.888 42.9707 44.664C42.7467 44.408 42.6347 44.12 42.6347 43.8V26.328L37.4507 35.832C37.0347 36.568 36.4747 36.936 35.7707 36.936H33.1787C32.5387 36.936 31.9787 36.568 31.4987 35.832L26.3627 26.328V43.8C26.3627 44.152 26.2347 44.44 25.9787 44.664C25.7547 44.888 25.4667 45 25.1147 45H19.0667Z"/>
</mask>
<path d="M18.1547 44.664L16.3766 46.4421L16.4358 46.5013L16.4988 46.5564L18.1547 44.664ZM18.1547 11.784L19.9328 13.5621L19.9328 13.5621L18.1547 11.784ZM26.2187 12.456L23.9696 13.5806L23.9953 13.6319L24.0232 13.682L26.2187 12.456ZM34.4747 27.24L32.2792 28.466L34.4683 32.386L36.6671 28.4715L34.4747 27.24ZM42.7787 12.456L44.9711 13.6874L45.0007 13.6347L45.0278 13.5806L42.7787 12.456ZM50.7947 11.784L48.9023 13.4399L49.0127 13.566L49.1388 13.6764L50.7947 11.784ZM50.7947 44.664L49.1388 42.7716L49.0758 42.8267L49.0166 42.8859L50.7947 44.664ZM42.9707 44.664L41.0783 46.3199L41.1887 46.446L41.3148 46.5564L42.9707 44.664ZM42.6347 26.328H45.1493L40.4271 25.1239L42.6347 26.328ZM37.4507 35.832L39.6398 37.0693L39.6491 37.0528L39.6582 37.0361L37.4507 35.832ZM31.4987 35.832L29.2865 37.0275L29.3358 37.1188L29.3924 37.2056L31.4987 35.832ZM26.3627 26.328L28.5749 25.1325L23.8481 26.328H26.3627ZM25.9787 44.664L24.3228 42.7716L24.2598 42.8267L24.2006 42.8859L25.9787 44.664ZM19.0667 42.4854C19.1616 42.4854 19.2945 42.5014 19.444 42.5565C19.5948 42.612 19.7188 42.6913 19.8106 42.7716L16.4988 46.5564C17.2304 47.1965 18.1288 47.5146 19.0667 47.5146V42.4854ZM19.9328 42.8859C20.061 43.0141 20.1727 43.1793 20.2463 43.3686C20.3179 43.5527 20.3333 43.7072 20.3333 43.8H15.3041C15.3041 44.7377 15.6265 45.692 16.3766 46.4421L19.9328 42.8859ZM20.3333 43.8V12.648H15.3041V43.8H20.3333ZM20.3333 12.648C20.3333 12.7408 20.3179 12.8953 20.2463 13.0794C20.1727 13.2687 20.061 13.4339 19.9328 13.5621L16.3766 10.0059C15.6265 10.756 15.3041 11.7103 15.3041 12.648H20.3333ZM19.9328 13.5621C19.8533 13.6416 19.7263 13.7395 19.5505 13.8135C19.3733 13.8882 19.203 13.9146 19.0667 13.9146V8.88541C18.0268 8.88541 17.0891 9.29339 16.3766 10.0059L19.9328 13.5621ZM19.0667 13.9146H24.4907V8.88541H19.0667V13.9146ZM24.4907 13.9146C24.5145 13.9146 24.3861 13.9164 24.2115 13.8096C24.0344 13.7015 23.9688 13.5789 23.9696 13.5806L28.4678 11.3314C28.1166 10.6291 27.5869 9.97854 26.8339 9.51835C26.0833 9.05963 25.2669 8.88541 24.4907 8.88541V13.9146ZM24.0232 13.682L32.2792 28.466L36.6701 26.014L28.4141 11.23L24.0232 13.682ZM36.6671 28.4715L44.9711 13.6874L40.5863 11.2245L32.2823 26.0085L36.6671 28.4715ZM45.0278 13.5806C45.0286 13.5789 44.9629 13.7015 44.7859 13.8096C44.6113 13.9164 44.4829 13.9146 44.5067 13.9146V8.88541C43.7305 8.88541 42.9141 9.05963 42.1635 9.51835C41.4104 9.97853 40.8808 10.6291 40.5296 11.3314L45.0278 13.5806ZM44.5067 13.9146H49.9307V8.88541H44.5067V13.9146ZM49.9307 13.9146C49.7961 13.9146 49.6026 13.8886 49.3894 13.7939C49.174 13.6981 49.0113 13.5644 48.9023 13.4399L52.6871 10.1281C51.967 9.30512 50.979 8.88541 49.9307 8.88541V13.9146ZM49.1388 13.6764C49.0143 13.5674 48.8806 13.4047 48.7848 13.1893C48.6901 12.9761 48.6641 12.7826 48.6641 12.648H53.6933C53.6933 11.5997 53.2736 10.6117 52.4506 9.89158L49.1388 13.6764ZM48.6641 12.648V43.8H53.6933V12.648H48.6641ZM48.6641 43.8C48.6641 43.6654 48.6901 43.4719 48.7848 43.2587C48.8806 43.0433 49.0143 42.8806 49.1388 42.7716L52.4506 46.5564C53.2736 45.8363 53.6933 44.8483 53.6933 43.8H48.6641ZM49.0166 42.8859C49.1448 42.7577 49.31 42.646 49.4993 42.5724C49.6834 42.5008 49.8379 42.4854 49.9307 42.4854V47.5146C50.8684 47.5146 51.8227 47.1921 52.5728 46.4421L49.0166 42.8859ZM49.9307 42.4854H43.8347V47.5146H49.9307V42.4854ZM43.8347 42.4854C43.9752 42.4854 44.1332 42.5114 44.2901 42.5724C44.4447 42.6325 44.5566 42.7104 44.6266 42.7716L41.3148 46.5564C41.9978 47.154 42.8651 47.5146 43.8347 47.5146V42.4854ZM44.8631 43.0081C44.9243 43.0781 45.0022 43.19 45.0623 43.3446C45.1233 43.5015 45.1493 43.6595 45.1493 43.8H40.1201C40.1201 44.7696 40.4807 45.6369 41.0783 46.3199L44.8631 43.0081ZM45.1493 43.8V26.328H40.1201V43.8H45.1493ZM40.4271 25.1239L35.2431 34.6279L39.6582 37.0361L44.8422 27.5321L40.4271 25.1239ZM35.2616 34.5947C35.2001 34.7034 35.2074 34.6442 35.3377 34.5585C35.4031 34.5156 35.4821 34.4779 35.5688 34.4527C35.6545 34.4277 35.7253 34.4214 35.7707 34.4214V39.4506C37.5783 39.4506 38.8839 38.4067 39.6398 37.0693L35.2616 34.5947ZM35.7707 34.4214H33.1787V39.4506H35.7707V34.4214ZM33.1787 34.4214C33.2636 34.4214 33.3573 34.4342 33.4509 34.4629C33.5437 34.4914 33.614 34.5285 33.6596 34.5585C33.7439 34.6139 33.712 34.6225 33.6049 34.4584L29.3924 37.2056C30.1461 38.3612 31.3908 39.4506 33.1787 39.4506V34.4214ZM33.7109 34.6365L28.5749 25.1325L24.1505 27.5235L29.2865 37.0275L33.7109 34.6365ZM23.8481 26.328V43.8H28.8773V26.328H23.8481ZM23.8481 43.8C23.8481 43.6654 23.8741 43.4719 23.9688 43.2587C24.0646 43.0433 24.1983 42.8806 24.3228 42.7716L27.6346 46.5564C28.4576 45.8363 28.8773 44.8483 28.8773 43.8H23.8481ZM24.2006 42.8859C24.3288 42.7577 24.494 42.646 24.6833 42.5724C24.8674 42.5008 25.0219 42.4854 25.1147 42.4854V47.5146C26.0524 47.5146 27.0067 47.1921 27.7568 46.4421L24.2006 42.8859ZM25.1147 42.4854H19.0667V47.5146H25.1147V42.4854Z" fill="#0094FF" mask="url(#path-3-outside-2_582_13)"/>
</g>
<g style="mix-blend-mode:hard-light" filter="url(#filter2_ddi_582_13)">
<mask id="path-5-outside-3_582_13" maskUnits="userSpaceOnUse" x="15" y="9" width="39" height="38" fill="black">
<rect fill="white" x="15" y="9" width="39" height="38"/>
<path d="M19.0667 45C18.7147 45 18.4107 44.888 18.1547 44.664C17.9307 44.44 17.8187 44.152 17.8187 43.8V12.648C17.8187 12.296 17.9307 12.008 18.1547 11.784C18.4107 11.528 18.7147 11.4 19.0667 11.4H24.4907C25.2907 11.4 25.8667 11.752 26.2187 12.456L34.4747 27.24L42.7787 12.456C43.1307 11.752 43.7067 11.4 44.5067 11.4H49.9307C50.2827 11.4 50.5707 11.528 50.7947 11.784C51.0507 12.008 51.1787 12.296 51.1787 12.648V43.8C51.1787 44.152 51.0507 44.44 50.7947 44.664C50.5707 44.888 50.2827 45 49.9307 45H43.8347C43.5147 45 43.2267 44.888 42.9707 44.664C42.7467 44.408 42.6347 44.12 42.6347 43.8V26.328L37.4507 35.832C37.0347 36.568 36.4747 36.936 35.7707 36.936H33.1787C32.5387 36.936 31.9787 36.568 31.4987 35.832L26.3627 26.328V43.8C26.3627 44.152 26.2347 44.44 25.9787 44.664C25.7547 44.888 25.4667 45 25.1147 45H19.0667Z"/>
</mask>
<path d="M18.1547 44.664L16.795 46.0237L16.8403 46.069L16.8884 46.1111L18.1547 44.664ZM18.1547 11.784L19.5144 13.1437L19.5144 13.1437L18.1547 11.784ZM26.2187 12.456L24.4988 13.316L24.5184 13.3552L24.5398 13.3935L26.2187 12.456ZM34.4747 27.24L32.7958 28.1776L34.4698 31.1752L36.1512 28.1817L34.4747 27.24ZM42.7787 12.456L44.4552 13.3977L44.4779 13.3573L44.4986 13.316L42.7787 12.456ZM50.7947 11.784L49.3475 13.0502L49.432 13.1467L49.5284 13.2311L50.7947 11.784ZM50.7947 44.664L49.5284 43.2169L49.4803 43.259L49.435 43.3043L50.7947 44.664ZM42.9707 44.664L41.5235 45.9302L41.608 46.0267L41.7044 46.1111L42.9707 44.664ZM42.6347 26.328H44.5576L40.9466 25.4072L42.6347 26.328ZM37.4507 35.832L39.1247 36.7782L39.1319 36.7655L39.1388 36.7528L37.4507 35.832ZM31.4987 35.832L29.807 36.7462L29.8447 36.816L29.888 36.8824L31.4987 35.832ZM26.3627 26.328L28.0544 25.4138L24.4398 26.328H26.3627ZM25.9787 44.664L24.7124 43.2169L24.6643 43.259L24.619 43.3043L25.9787 44.664ZM19.0667 43.0771C19.0979 43.0771 19.1609 43.0827 19.2395 43.1116C19.319 43.141 19.3809 43.1818 19.4209 43.2169L16.8884 46.1111C17.5081 46.6533 18.2667 46.9229 19.0667 46.9229V43.0771ZM19.5144 43.3043C19.5861 43.376 19.6517 43.4722 19.6949 43.583C19.7364 43.6899 19.7416 43.7704 19.7416 43.8H15.8958C15.8958 44.5999 16.1687 45.3974 16.795 46.0237L19.5144 43.3043ZM19.7416 43.8V12.648H15.8958V43.8H19.7416ZM19.7416 12.648C19.7416 12.6776 19.7364 12.7581 19.6949 12.865C19.6517 12.9758 19.5861 13.072 19.5144 13.1437L16.795 10.4243C16.1687 11.0506 15.8958 11.8481 15.8958 12.648H19.7416ZM19.5144 13.1437C19.4837 13.1744 19.4196 13.2267 19.3209 13.2682C19.2211 13.3102 19.1295 13.3229 19.0667 13.3229V9.47708C18.1887 9.47708 17.4001 9.81918 16.795 10.4243L19.5144 13.1437ZM19.0667 13.3229H24.4907V9.47708H19.0667V13.3229ZM24.4907 13.3229C24.5499 13.3229 24.574 13.3294 24.5721 13.3289C24.5712 13.3287 24.565 13.327 24.555 13.3228C24.5449 13.3186 24.5328 13.3126 24.52 13.3048C24.5071 13.2969 24.4957 13.2885 24.4861 13.2804C24.4766 13.2724 24.4707 13.2662 24.4683 13.2633C24.4631 13.2575 24.476 13.2703 24.4988 13.316L27.9386 11.596C27.6286 10.9761 27.169 10.4165 26.5254 10.0232C25.8836 9.63101 25.1784 9.47708 24.4907 9.47708V13.3229ZM24.5398 13.3935L32.7958 28.1776L36.1536 26.3024L27.8976 11.5184L24.5398 13.3935ZM36.1512 28.1817L44.4552 13.3977L41.1021 11.5143L32.7981 26.2983L36.1512 28.1817ZM44.4986 13.316C44.5214 13.2703 44.5343 13.2575 44.5291 13.2633C44.5266 13.2662 44.5208 13.2724 44.5113 13.2804C44.5017 13.2885 44.4903 13.2969 44.4774 13.3048C44.4645 13.3126 44.4525 13.3186 44.4424 13.3228C44.4323 13.327 44.4262 13.3287 44.4253 13.3289C44.4233 13.3294 44.4475 13.3229 44.5067 13.3229V9.47708C43.819 9.47708 43.1138 9.63101 42.472 10.0232C41.8284 10.4165 41.3687 10.9761 41.0588 11.596L44.4986 13.316ZM44.5067 13.3229H49.9307V9.47708H44.5067V13.3229ZM49.9307 13.3229C49.8692 13.3229 49.7589 13.3106 49.6297 13.2532C49.4989 13.195 49.4045 13.1154 49.3475 13.0502L52.2418 10.5177C51.6384 9.82815 50.8152 9.47708 49.9307 9.47708V13.3229ZM49.5284 13.2311C49.4633 13.1742 49.3837 13.0798 49.3255 12.949C49.2681 12.8198 49.2558 12.7095 49.2558 12.648H53.1016C53.1016 11.7635 52.7505 10.9403 52.0609 10.3369L49.5284 13.2311ZM49.2558 12.648V43.8H53.1016V12.648H49.2558ZM49.2558 43.8C49.2558 43.7385 49.2681 43.6282 49.3255 43.499C49.3837 43.3682 49.4633 43.2738 49.5284 43.2169L52.0609 46.1111C52.7505 45.5077 53.1016 44.6845 53.1016 43.8H49.2558ZM49.435 43.3043C49.5067 43.2326 49.6029 43.1669 49.7137 43.1238C49.8206 43.0823 49.9011 43.0771 49.9307 43.0771V46.9229C50.7306 46.9229 51.5281 46.65 52.1544 46.0237L49.435 43.3043ZM49.9307 43.0771H43.8347V46.9229H49.9307V43.0771ZM43.8347 43.0771C43.9045 43.0771 43.9895 43.0903 44.0756 43.1238C44.16 43.1566 44.2136 43.1964 44.2369 43.2169L41.7044 46.1111C42.287 46.6208 43.018 46.9229 43.8347 46.9229V43.0771ZM44.4178 43.3978C44.4383 43.4211 44.4781 43.4747 44.5109 43.559C44.5443 43.6451 44.5576 43.7302 44.5576 43.8H40.7118C40.7118 44.6167 41.0138 45.3477 41.5235 45.9302L44.4178 43.3978ZM44.5576 43.8V26.328H40.7118V43.8H44.5576ZM40.9466 25.4072L35.7626 34.9112L39.1388 36.7528L44.3228 27.2488L40.9466 25.4072ZM35.7767 34.8858C35.6807 35.0555 35.6289 35.0752 35.6627 35.053C35.6797 35.0418 35.7051 35.0292 35.7342 35.0207C35.7625 35.0125 35.7774 35.0131 35.7707 35.0131V38.8589C37.3186 38.8589 38.4488 37.974 39.1247 36.7782L35.7767 34.8858ZM35.7707 35.0131H33.1787V38.8589H35.7707V35.0131ZM33.1787 35.0131C33.2059 35.0131 33.2412 35.0175 33.2775 35.0286C33.3131 35.0395 33.3327 35.0517 33.3347 35.053C33.3353 35.0534 33.3137 35.0393 33.2734 34.9965C33.2326 34.9532 33.1766 34.8848 33.1093 34.7816L29.888 36.8824C30.5773 37.9393 31.6609 38.8589 33.1787 38.8589V35.0131ZM33.1904 34.9178L28.0544 25.4138L24.671 27.2422L29.807 36.7462L33.1904 34.9178ZM24.4398 26.328V43.8H28.2856V26.328H24.4398ZM24.4398 43.8C24.4398 43.7385 24.4521 43.6282 24.5095 43.499C24.5677 43.3682 24.6473 43.2738 24.7124 43.2169L27.2449 46.1111C27.9345 45.5077 28.2856 44.6845 28.2856 43.8H24.4398ZM24.619 43.3043C24.6907 43.2326 24.7869 43.1669 24.8977 43.1238C25.0046 43.0823 25.0851 43.0771 25.1147 43.0771V46.9229C25.9146 46.9229 26.7121 46.65 27.3384 46.0237L24.619 43.3043ZM25.1147 43.0771H19.0667V46.9229H25.1147V43.0771Z" fill="#00B3FF" fill-opacity="0.2" mask="url(#path-5-outside-3_582_13)"/>
</g>
<g filter="url(#filter3_f_582_13)">
<mask id="path-7-outside-4_582_13" maskUnits="userSpaceOnUse" x="16" y="10" width="37" height="37" fill="black">
<rect fill="white" x="16" y="10" width="37" height="37"/>
<path d="M19.0667 45C18.7147 45 18.4107 44.888 18.1547 44.664C17.9307 44.44 17.8187 44.152 17.8187 43.8V12.648C17.8187 12.296 17.9307 12.008 18.1547 11.784C18.4107 11.528 18.7147 11.4 19.0667 11.4H24.4907C25.2907 11.4 25.8667 11.752 26.2187 12.456L34.4747 27.24L42.7787 12.456C43.1307 11.752 43.7067 11.4 44.5067 11.4H49.9307C50.2827 11.4 50.5707 11.528 50.7947 11.784C51.0507 12.008 51.1787 12.296 51.1787 12.648V43.8C51.1787 44.152 51.0507 44.44 50.7947 44.664C50.5707 44.888 50.2827 45 49.9307 45H43.8347C43.5147 45 43.2267 44.888 42.9707 44.664C42.7467 44.408 42.6347 44.12 42.6347 43.8V26.328L37.4507 35.832C37.0347 36.568 36.4747 36.936 35.7707 36.936H33.1787C32.5387 36.936 31.9787 36.568 31.4987 35.832L26.3627 26.328V43.8C26.3627 44.152 26.2347 44.44 25.9787 44.664C25.7547 44.888 25.4667 45 25.1147 45H19.0667Z"/>
</mask>
<path d="M18.1547 44.664L17.3179 45.5007L17.3458 45.5286L17.3755 45.5546L18.1547 44.664ZM18.1547 11.784L18.9914 12.6207L18.9914 12.6207L18.1547 11.784ZM26.2187 12.456L25.1603 12.9852L25.1724 13.0094L25.1855 13.033L26.2187 12.456ZM34.4747 27.24L33.4415 27.817L34.4717 29.6617L35.5064 27.8195L34.4747 27.24ZM42.7787 12.456L43.8104 13.0355L43.8244 13.0107L43.8371 12.9852L42.7787 12.456ZM50.7947 11.784L49.9041 12.5632L49.9561 12.6226L50.0155 12.6745L50.7947 11.784ZM50.7947 44.664L50.0155 43.7735L49.9858 43.7994L49.958 43.8273L50.7947 44.664ZM42.9707 44.664L42.0801 45.4432L42.1321 45.5026L42.1915 45.5546L42.9707 44.664ZM42.6347 26.328H43.818L41.5958 25.7614L42.6347 26.328ZM37.4507 35.832L38.4809 36.4143L38.4853 36.4065L38.4895 36.3986L37.4507 35.832ZM31.4987 35.832L30.4576 36.3946L30.4809 36.4375L30.5075 36.4784L31.4987 35.832ZM26.3627 26.328L27.4037 25.7654L25.1794 26.328H26.3627ZM25.9787 44.664L25.1995 43.7735L25.1698 43.7994L25.1419 43.8273L25.9787 44.664ZM19.0667 43.8167C18.9904 43.8167 18.9661 43.8016 18.9339 43.7735L17.3755 45.5546C17.8552 45.9744 18.439 46.1833 19.0667 46.1833V43.8167ZM18.9914 43.8273C18.9906 43.8264 18.9932 43.8289 18.997 43.8348C19.0009 43.8407 19.0038 43.8466 19.0056 43.8511C19.0072 43.8554 19.0065 43.8551 19.0053 43.848C19.004 43.8407 19.002 43.8252 19.002 43.8H16.6354C16.6354 44.4276 16.8464 45.0292 17.3179 45.5007L18.9914 43.8273ZM19.002 43.8V12.648H16.6354V43.8H19.002ZM19.002 12.648C19.002 12.6228 19.004 12.6073 19.0053 12.6C19.0065 12.5929 19.0072 12.5926 19.0056 12.5969C19.0038 12.6014 19.0009 12.6073 18.997 12.6132C18.9932 12.6191 18.9906 12.6216 18.9914 12.6207L17.3179 10.9473C16.8464 11.4188 16.6354 12.0204 16.6354 12.648H19.002ZM18.9914 12.6207C19.0074 12.6048 19.0187 12.5962 19.0249 12.5919C19.0309 12.5878 19.0337 12.5867 19.0339 12.5866C19.034 12.5865 19.035 12.5861 19.0383 12.5854C19.0418 12.5847 19.0507 12.5833 19.0667 12.5833V10.2167C18.391 10.2167 17.7888 10.4764 17.3179 10.9473L18.9914 12.6207ZM19.0667 12.5833H24.4907V10.2167H19.0667V12.5833ZM24.4907 12.5833C24.7137 12.5833 24.8353 12.6308 24.9056 12.6737C24.9748 12.716 25.0667 12.7981 25.1603 12.9852L27.2771 11.9268C27.0187 11.4099 26.6466 10.964 26.1397 10.6543C25.634 10.3452 25.0677 10.2167 24.4907 10.2167V12.5833ZM25.1855 13.033L33.4415 27.817L35.5078 26.663L27.2518 11.879L25.1855 13.033ZM35.5064 27.8195L43.8104 13.0355L41.747 11.8765L33.443 26.6605L35.5064 27.8195ZM43.8371 12.9852C43.9307 12.7981 44.0226 12.716 44.0917 12.6737C44.162 12.6308 44.2837 12.5833 44.5067 12.5833V10.2167C43.9297 10.2167 43.3633 10.3452 42.8576 10.6543C42.3508 10.964 41.9787 11.4099 41.7203 11.9268L43.8371 12.9852ZM44.5067 12.5833H49.9307V10.2167H44.5067V12.5833ZM49.9307 12.5833C49.9468 12.5833 49.9527 12.5848 49.9506 12.5844C49.9482 12.5839 49.9405 12.582 49.9301 12.5773C49.9196 12.5727 49.9108 12.5672 49.9047 12.5627C49.8989 12.5583 49.8989 12.5573 49.9041 12.5632L51.6852 11.0048C51.2278 10.4819 50.6104 10.2167 49.9307 10.2167V12.5833ZM50.0155 12.6745C50.0214 12.6797 50.0204 12.6798 50.016 12.674C50.0115 12.6679 50.006 12.6591 50.0013 12.6486C49.9967 12.6381 49.9948 12.6305 49.9943 12.6281C49.9939 12.6259 49.9954 12.6319 49.9954 12.648H52.362C52.362 11.9683 52.0968 11.3509 51.5739 10.8934L50.0155 12.6745ZM49.9954 12.648V43.8H52.362V12.648H49.9954ZM49.9954 43.8C49.9954 43.8161 49.9939 43.8221 49.9943 43.8199C49.9948 43.8175 49.9967 43.8099 50.0013 43.7994C50.006 43.7889 50.0115 43.7801 50.016 43.774C50.0204 43.7682 50.0214 43.7683 50.0155 43.7735L51.5739 45.5545C52.0968 45.0971 52.362 44.4797 52.362 43.8H49.9954ZM49.958 43.8273C49.9571 43.8281 49.9596 43.8255 49.9654 43.8217C49.9714 43.8178 49.9773 43.8149 49.9818 43.8131C49.9861 43.8114 49.9858 43.8121 49.9787 43.8134C49.9714 43.8147 49.9559 43.8167 49.9307 43.8167V46.1833C50.5583 46.1833 51.1599 45.9723 51.6314 45.5007L49.958 43.8273ZM49.9307 43.8167H43.8347V46.1833H49.9307V43.8167ZM43.8347 43.8167C43.8161 43.8167 43.81 43.8141 43.8076 43.8131C43.8041 43.8118 43.7848 43.804 43.7499 43.7734L42.1915 45.5546C42.6484 45.9544 43.209 46.1833 43.8347 46.1833V43.8167ZM43.8612 43.8848C43.8307 43.8499 43.8229 43.8306 43.8216 43.8271C43.8206 43.8247 43.818 43.8186 43.818 43.8H41.4514C41.4514 44.4257 41.6803 44.9863 42.0801 45.4432L43.8612 43.8848ZM43.818 43.8V26.328H41.4514V43.8H43.818ZM41.5958 25.7614L36.4118 35.2654L38.4895 36.3986L43.6735 26.8946L41.5958 25.7614ZM36.4205 35.2497C36.1645 35.7028 35.9553 35.7527 35.7707 35.7527V38.1193C36.994 38.1193 37.9049 37.4332 38.4809 36.4143L36.4205 35.2497ZM35.7707 35.7527H33.1787V38.1193H35.7707V35.7527ZM33.1787 35.7527C33.0789 35.7527 32.8411 35.7241 32.4899 35.1856L30.5075 36.4784C31.1163 37.4119 31.9985 38.1193 33.1787 38.1193V35.7527ZM32.5397 35.2694L27.4037 25.7654L25.3216 26.8906L30.4576 36.3946L32.5397 35.2694ZM25.1794 26.328V43.8H27.546V26.328H25.1794ZM25.1794 43.8C25.1794 43.8161 25.1779 43.8221 25.1783 43.8199C25.1788 43.8175 25.1807 43.8099 25.1853 43.7994C25.19 43.7889 25.1955 43.7801 25.2 43.774C25.2044 43.7682 25.2054 43.7683 25.1995 43.7735L26.7579 45.5546C27.2808 45.0971 27.546 44.4797 27.546 43.8H25.1794ZM25.1419 43.8273C25.1411 43.8281 25.1436 43.8255 25.1494 43.8217C25.1554 43.8178 25.1613 43.8149 25.1658 43.8131C25.1701 43.8114 25.1698 43.8121 25.1627 43.8134C25.1554 43.8147 25.1399 43.8167 25.1147 43.8167V46.1833C25.7423 46.1833 26.3439 45.9723 26.8154 45.5007L25.1419 43.8273ZM25.1147 43.8167H19.0667V46.1833H25.1147V43.8167Z" fill="#82D9FF" mask="url(#path-7-outside-4_582_13)"/>
</g>
<g filter="url(#filter4_f_582_13)">
<mask id="path-9-outside-5_582_13" maskUnits="userSpaceOnUse" x="17" y="10" width="35" height="36" fill="black">
<rect fill="white" x="17" y="10" width="35" height="36"/>
<path d="M19.0667 45C18.7147 45 18.4107 44.888 18.1547 44.664C17.9307 44.44 17.8187 44.152 17.8187 43.8V12.648C17.8187 12.296 17.9307 12.008 18.1547 11.784C18.4107 11.528 18.7147 11.4 19.0667 11.4H24.4907C25.2907 11.4 25.8667 11.752 26.2187 12.456L34.4747 27.24L42.7787 12.456C43.1307 11.752 43.7067 11.4 44.5067 11.4H49.9307C50.2827 11.4 50.5707 11.528 50.7947 11.784C51.0507 12.008 51.1787 12.296 51.1787 12.648V43.8C51.1787 44.152 51.0507 44.44 50.7947 44.664C50.5707 44.888 50.2827 45 49.9307 45H43.8347C43.5147 45 43.2267 44.888 42.9707 44.664C42.7467 44.408 42.6347 44.12 42.6347 43.8V26.328L37.4507 35.832C37.0347 36.568 36.4747 36.936 35.7707 36.936H33.1787C32.5387 36.936 31.9787 36.568 31.4987 35.832L26.3627 26.328V43.8C26.3627 44.152 26.2347 44.44 25.9787 44.664C25.7547 44.888 25.4667 45 25.1147 45H19.0667Z"/>
</mask>
<path d="M18.1547 44.664L17.7363 45.0824L17.7502 45.0963L17.7651 45.1093L18.1547 44.664ZM18.1547 11.784L18.5731 12.2024V12.2024L18.1547 11.784ZM26.2187 12.456L25.6895 12.7206L25.6955 12.7327L25.7021 12.7445L26.2187 12.456ZM34.4747 27.24L33.9581 27.5285L34.4732 28.4508L34.9906 27.5298L34.4747 27.24ZM42.7787 12.456L43.2945 12.7458L43.3015 12.7333L43.3079 12.7206L42.7787 12.456ZM50.7947 11.784L50.3494 12.1736L50.3754 12.2033L50.4051 12.2293L50.7947 11.784ZM50.7947 44.664L50.4051 44.2187L50.3902 44.2317L50.3763 44.2456L50.7947 44.664ZM42.9707 44.664L42.5254 45.0536L42.5514 45.0833L42.5811 45.1093L42.9707 44.664ZM42.6347 26.328H43.2264L42.1153 26.0447L42.6347 26.328ZM37.4507 35.832L37.9658 36.1232L37.9701 36.1153L37.4507 35.832ZM31.4987 35.832L30.9782 36.1133L30.9898 36.1348L31.0031 36.1552L31.4987 35.832ZM26.3627 26.328L26.8832 26.0467L25.771 26.328H26.3627ZM25.9787 44.664L25.5891 44.2187L25.5742 44.2317L25.5603 44.2456L25.9787 44.664ZM19.0667 44.4083C18.8525 44.4083 18.6884 44.3448 18.5443 44.2187L17.7651 45.1093C18.133 45.4312 18.5768 45.5917 19.0667 45.5917V44.4083ZM18.5731 44.2456C18.4728 44.1454 18.4104 44.0142 18.4104 43.8H17.227C17.227 44.2898 17.3885 44.7346 17.7363 45.0824L18.5731 44.2456ZM18.4104 43.8V12.648H17.227V43.8H18.4104ZM18.4104 12.648C18.4104 12.4338 18.4728 12.3026 18.5731 12.2024L17.7363 11.3656C17.3885 11.7134 17.227 12.1582 17.227 12.648H18.4104ZM18.5731 12.2024C18.7216 12.0538 18.8765 11.9917 19.0667 11.9917V10.8083C18.5528 10.8083 18.0997 11.0022 17.7363 11.3656L18.5731 12.2024ZM19.0667 11.9917H24.4907V10.8083H19.0667V11.9917ZM24.4907 11.9917C24.8022 11.9917 25.035 12.0594 25.2142 12.1689C25.3927 12.278 25.5547 12.451 25.6895 12.7206L26.7479 12.1914C26.5307 11.757 26.2286 11.402 25.8312 11.1591C25.4344 10.9166 24.9792 10.8083 24.4907 10.8083V11.9917ZM25.7021 12.7445L33.9581 27.5285L34.9913 26.9515L26.7353 12.1675L25.7021 12.7445ZM34.9906 27.5298L43.2945 12.7458L42.2628 12.1662L33.9588 26.9502L34.9906 27.5298ZM43.3079 12.7206C43.4427 12.451 43.6046 12.278 43.7832 12.1689C43.9624 12.0594 44.1952 11.9917 44.5067 11.9917V10.8083C44.0182 10.8083 43.563 10.9166 43.1662 11.1591C42.7687 11.402 42.4667 11.757 42.2495 12.1914L43.3079 12.7206ZM44.5067 11.9917H49.9307V10.8083H44.5067V11.9917ZM49.9307 11.9917C50.1189 11.9917 50.2422 12.051 50.3494 12.1736L51.24 11.3944C50.8992 11.005 50.4465 10.8083 49.9307 10.8083V11.9917ZM50.4051 12.2293C50.5277 12.3365 50.587 12.4598 50.587 12.648H51.7704C51.7704 12.1322 51.5737 11.6795 51.1843 11.3387L50.4051 12.2293ZM50.587 12.648V43.8H51.7704V12.648H50.587ZM50.587 43.8C50.587 43.9882 50.5277 44.1115 50.4051 44.2187L51.1843 45.1093C51.5737 44.7685 51.7704 44.3158 51.7704 43.8H50.587ZM50.3763 44.2456C50.2761 44.3459 50.1449 44.4083 49.9307 44.4083V45.5917C50.4205 45.5917 50.8653 45.4301 51.2131 45.0824L50.3763 44.2456ZM49.9307 44.4083H43.8347V45.5917H49.9307V44.4083ZM43.8347 44.4083C43.6675 44.4083 43.5158 44.3548 43.3603 44.2187L42.5811 45.1093C42.9375 45.4212 43.3619 45.5917 43.8347 45.5917V44.4083ZM43.416 44.2744C43.2799 44.1189 43.2264 43.9672 43.2264 43.8H42.043C42.043 44.2728 42.2135 44.6971 42.5254 45.0536L43.416 44.2744ZM43.2264 43.8V26.328H42.043V43.8H43.2264ZM42.1153 26.0447L36.9313 35.5487L37.9701 36.1153L43.1541 26.6113L42.1153 26.0447ZM36.9356 35.5409C36.5996 36.1354 36.215 36.3443 35.7707 36.3443V37.5277C36.7344 37.5277 37.4698 37.0006 37.9658 36.1231L36.9356 35.5409ZM35.7707 36.3443H33.1787V37.5277H35.7707V36.3443ZM33.1787 36.3443C32.8088 36.3443 32.4099 36.1461 31.9943 35.5088L31.0031 36.1552C31.5475 36.9899 32.2686 37.5277 33.1787 37.5277V36.3443ZM32.0192 35.5507L26.8832 26.0467L25.8422 26.6093L30.9782 36.1133L32.0192 35.5507ZM25.771 26.328V43.8H26.9544V26.328H25.771ZM25.771 43.8C25.771 43.9882 25.7117 44.1115 25.5891 44.2187L26.3683 45.1093C26.7577 44.7685 26.9544 44.3158 26.9544 43.8H25.771ZM25.5603 44.2456C25.4601 44.3458 25.3289 44.4083 25.1147 44.4083V45.5917C25.6045 45.5917 26.0493 45.4301 26.3971 45.0824L25.5603 44.2456ZM25.1147 44.4083H19.0667V45.5917H25.1147V44.4083Z" fill="white" mask="url(#path-9-outside-5_582_13)"/>
</g>
<defs>
<filter id="filter0_f_582_13" x="13.3368" y="6.91803" width="42.3238" height="42.5638" filterUnits="userSpaceOnUse" color-interpolation-filters="sRGB">
<feFlood flood-opacity="0" result="BackgroundImageFix"/>
<feBlend mode="normal" in="SourceGraphic" in2="BackgroundImageFix" result="shape"/>
<feGaussianBlur stdDeviation="2.24094" result="effect1_foregroundBlur_582_13"/>
</filter>
<filter id="filter1_f_582_13" x="16.3247" y="9.90594" width="36.348" height="36.588" filterUnits="userSpaceOnUse" color-interpolation-filters="sRGB">
<feFlood flood-opacity="0" result="BackgroundImageFix"/>
<feBlend mode="normal" in="SourceGraphic" in2="BackgroundImageFix" result="shape"/>
<feGaussianBlur stdDeviation="0.746979" result="effect1_foregroundBlur_582_13"/>
</filter>
<filter id="filter2_ddi_582_13" x="15.8765" y="10.9517" width="37.2443" height="37.4844" filterUnits="userSpaceOnUse" color-interpolation-filters="sRGB">
<feFlood flood-opacity="0" result="BackgroundImageFix"/>
<feColorMatrix in="SourceAlpha" type="matrix" values="0 0 0 0 0 0 0 0 0 0 0 0 0 0 0 0 0 0 127 0" result="hardAlpha"/>
<feOffset dy="1.92292"/>
<feGaussianBlur stdDeviation="0.739583"/>
<feColorMatrix type="matrix" values="0 0 0 0 0 0 0 0 0 0.051 0 0 0 0 0.082 0 0 0 0.7 0"/>
<feBlend mode="multiply" in2="BackgroundImageFix" result="effect1_dropShadow_582_13"/>
<feColorMatrix in="SourceAlpha" type="matrix" values="0 0 0 0 0 0 0 0 0 0 0 0 0 0 0 0 0 0 127 0" result="hardAlpha"/>
<feOffset dy="1.49396"/>
<feGaussianBlur stdDeviation="0.971073"/>
<feColorMatrix type="matrix" values="0 0 0 0 0 0 0 0 0 0.4 0 0 0 0 1 0 0 0 1 0"/>
<feBlend mode="color-dodge" in2="effect1_dropShadow_582_13" result="effect2_dropShadow_582_13"/>
<feBlend mode="normal" in="SourceGraphic" in2="effect2_dropShadow_582_13" result="shape"/>
<feColorMatrix in="SourceAlpha" type="matrix" values="0 0 0 0 0 0 0 0 0 0 0 0 0 0 0 0 0 0 127 0" result="hardAlpha"/>
<feOffset dx="-0.192292" dy="0.384583"/>
<feGaussianBlur stdDeviation="0.0961458"/>
<feComposite in2="hardAlpha" operator="arithmetic" k2="-1" k3="1"/>
<feColorMatrix type="matrix" values="0 0 0 0 1 0 0 0 0 1 0 0 0 0 1 0 0 0 0.5 0"/>
<feBlend mode="normal" in2="shape" result="effect3_innerShadow_582_13"/>
</filter>
<filter id="filter3_f_582_13" x="17.5228" y="11.1041" width="33.9517" height="34.1918" filterUnits="userSpaceOnUse" color-interpolation-filters="sRGB">
<feFlood flood-opacity="0" result="BackgroundImageFix"/>
<feBlend mode="normal" in="SourceGraphic" in2="BackgroundImageFix" result="shape"/>
<feGaussianBlur stdDeviation="0.147917" result="effect1_foregroundBlur_582_13"/>
</filter>
<filter id="filter4_f_582_13" x="17.6214" y="11.2027" width="33.7545" height="33.9945" filterUnits="userSpaceOnUse" color-interpolation-filters="sRGB">
<feFlood flood-opacity="0" result="BackgroundImageFix"/>
<feBlend mode="normal" in="SourceGraphic" in2="BackgroundImageFix" result="shape"/>
<feGaussianBlur stdDeviation="0.0986111" result="effect1_foregroundBlur_582_13"/>
</filter>
</defs>
</svg>
